<svg width="139" height="17" viewBox="0 0 139 17" fill="none" xmlns="http://www.w3.org/2000/svg">
<path d="M0.132812 15V3.54688H3.59375L5.67188 11.3594L7.72656 3.54688H11.1953V15H9.04688V5.98438L6.77344 15H4.54688L2.28125 5.98438V15H0.132812ZM18.6012 12.3594L20.7887 12.7266C20.5075 13.5286 20.0622 14.1406 19.4528 14.5625C18.8486 14.9792 18.0908 15.1875 17.1794 15.1875C15.7367 15.1875 14.669 14.7161 13.9762 13.7734C13.4294 13.0182 13.1559 12.0651 13.1559 10.9141C13.1559 9.53906 13.5153 8.46354 14.2341 7.6875C14.9528 6.90625 15.8617 6.51562 16.9606 6.51562C18.195 6.51562 19.169 6.92448 19.8825 7.74219C20.596 8.55469 20.9372 9.80208 20.9059 11.4844H15.4059C15.4216 12.1354 15.5986 12.6432 15.9372 13.0078C16.2757 13.3672 16.6976 13.5469 17.2028 13.5469C17.5466 13.5469 17.8356 13.4531 18.07 13.2656C18.3044 13.0781 18.4815 12.776 18.6012 12.3594ZM18.7262 10.1406C18.7106 9.50521 18.5466 9.02344 18.2341 8.69531C17.9216 8.36198 17.5414 8.19531 17.0934 8.19531C16.6143 8.19531 16.2184 8.36979 15.9059 8.71875C15.5934 9.06771 15.4398 9.54167 15.445 10.1406H18.7262ZM23.0228 15V3.54688H25.2181V15H23.0228ZM27.2881 10.7344C27.2881 10.0052 27.4678 9.29948 27.8272 8.61719C28.1866 7.9349 28.6944 7.41406 29.3506 7.05469C30.0121 6.69531 30.7491 6.51562 31.5616 6.51562C32.8168 6.51562 33.8454 6.92448 34.6475 7.74219C35.4496 8.55469 35.8506 9.58333 35.8506 10.8281C35.8506 12.0833 35.4444 13.125 34.6319 13.9531C33.8246 14.776 32.8064 15.1875 31.5772 15.1875C30.8168 15.1875 30.0902 15.0156 29.3975 14.6719C28.71 14.3281 28.1866 13.8255 27.8272 13.1641C27.4678 12.4974 27.2881 11.6875 27.2881 10.7344ZM29.5381 10.8516C29.5381 11.6745 29.7334 12.3047 30.1241 12.7422C30.5147 13.1797 30.9965 13.3984 31.5694 13.3984C32.1423 13.3984 32.6215 13.1797 33.0069 12.7422C33.3975 12.3047 33.5928 11.6693 33.5928 10.8359C33.5928 10.0234 33.3975 9.39844 33.0069 8.96094C32.6215 8.52344 32.1423 8.30469 31.5694 8.30469C30.9965 8.30469 30.5147 8.52344 30.1241 8.96094C29.7334 9.39844 29.5381 10.0286 29.5381 10.8516ZM45.5066 15H43.4675V13.7812C43.129 14.2552 42.7279 14.6094 42.2644 14.8438C41.806 15.0729 41.3425 15.1875 40.8737 15.1875C39.9206 15.1875 39.1029 14.8047 38.4206 14.0391C37.7435 13.2682 37.405 12.1953 37.405 10.8203C37.405 9.41406 37.7357 8.34635 38.3972 7.61719C39.0586 6.88281 39.8946 6.51562 40.905 6.51562C41.8321 6.51562 42.6342 6.90104 43.3112 7.67188V3.54688H45.5066V15ZM39.6472 10.6719C39.6472 11.5573 39.7696 12.1979 40.0144 12.5938C40.3685 13.1667 40.8633 13.4531 41.4987 13.4531C42.004 13.4531 42.4336 13.2396 42.7878 12.8125C43.142 12.3802 43.3191 11.737 43.3191 10.8828C43.3191 9.92969 43.1472 9.24479 42.8034 8.82812C42.4597 8.40625 42.0196 8.19531 41.4831 8.19531C40.9623 8.19531 40.5248 8.40365 40.1706 8.82031C39.8217 9.23177 39.6472 9.84896 39.6472 10.6719ZM47.9984 5.57812V3.54688H50.1937V5.57812H47.9984ZM47.9984 15V6.70312H50.1937V15H47.9984ZM54.4122 9.23438L52.42 8.875C52.644 8.07292 53.0294 7.47917 53.5762 7.09375C54.1231 6.70833 54.9356 6.51562 56.0137 6.51562C56.9929 6.51562 57.7221 6.63281 58.2012 6.86719C58.6804 7.09635 59.0164 7.39062 59.2091 7.75C59.407 8.10417 59.5059 8.75781 59.5059 9.71094L59.4825 12.2734C59.4825 13.0026 59.5164 13.5417 59.5841 13.8906C59.657 14.2344 59.7898 14.6042 59.9825 15H57.8106C57.7533 14.8542 57.683 14.638 57.5997 14.3516C57.5632 14.2214 57.5372 14.1354 57.5216 14.0938C57.1466 14.4583 56.7455 14.7318 56.3184 14.9141C55.8914 15.0964 55.4356 15.1875 54.9512 15.1875C54.0971 15.1875 53.4226 14.9557 52.9278 14.4922C52.4382 14.0286 52.1934 13.4427 52.1934 12.7344C52.1934 12.2656 52.3054 11.849 52.5294 11.4844C52.7533 11.1146 53.0658 10.8333 53.4669 10.6406C53.8731 10.4427 54.4565 10.2708 55.2169 10.125C56.2429 9.93229 56.9539 9.7526 57.3497 9.58594V9.36719C57.3497 8.94531 57.2455 8.64583 57.0372 8.46875C56.8289 8.28646 56.4356 8.19531 55.8575 8.19531C55.4669 8.19531 55.1622 8.27344 54.9434 8.42969C54.7247 8.58073 54.5476 8.84896 54.4122 9.23438ZM57.3497 11.0156C57.0684 11.1094 56.6231 11.2214 56.0137 11.3516C55.4044 11.4818 55.0059 11.6094 54.8184 11.7344C54.532 11.9375 54.3887 12.1953 54.3887 12.5078C54.3887 12.8151 54.5033 13.0807 54.7325 13.3047C54.9617 13.5286 55.2533 13.6406 55.6075 13.6406C56.0033 13.6406 56.3809 13.5104 56.7403 13.25C57.0059 13.0521 57.1804 12.8099 57.2637 12.5234C57.321 12.3359 57.3497 11.9792 57.3497 11.4531V11.0156ZM66.2006 11.2734L68.4506 11.0547C68.586 11.8099 68.8595 12.3646 69.2709 12.7188C69.6876 13.0729 70.2475 13.25 70.9506 13.25C71.6954 13.25 72.2553 13.0938 72.6303 12.7812C73.0105 12.4635 73.2006 12.0938 73.2006 11.6719C73.2006 11.401 73.1199 11.1719 72.9584 10.9844C72.8022 10.7917 72.5261 10.625 72.1303 10.4844C71.8595 10.3906 71.2423 10.224 70.2787 9.98438C69.0392 9.67708 68.1694 9.29948 67.6694 8.85156C66.9662 8.22135 66.6147 7.45312 66.6147 6.54688C66.6147 5.96354 66.7787 5.41927 67.1069 4.91406C67.4402 4.40365 67.9168 4.01562 68.5366 3.75C69.1616 3.48438 69.9142 3.35156 70.7944 3.35156C72.2319 3.35156 73.3126 3.66667 74.0366 4.29688C74.7657 4.92708 75.1485 5.76823 75.185 6.82031L72.8725 6.92188C72.7735 6.33333 72.56 5.91146 72.2319 5.65625C71.909 5.39583 71.422 5.26562 70.7709 5.26562C70.0991 5.26562 69.573 5.40365 69.1928 5.67969C68.948 5.85677 68.8256 6.09375 68.8256 6.39062C68.8256 6.66146 68.9402 6.89323 69.1694 7.08594C69.461 7.33073 70.1694 7.58594 71.2944 7.85156C72.4194 8.11719 73.2501 8.39323 73.7866 8.67969C74.3282 8.96094 74.7501 9.34896 75.0522 9.84375C75.3595 10.3333 75.5131 10.9401 75.5131 11.6641C75.5131 12.3203 75.3308 12.9349 74.9662 13.5078C74.6017 14.0807 74.086 14.5078 73.4194 14.7891C72.7527 15.0651 71.922 15.2031 70.9272 15.2031C69.4793 15.2031 68.3673 14.8698 67.5912 14.2031C66.8152 13.5312 66.3517 12.5547 66.2006 11.2734ZM81.5675 6.70312V8.45312H80.0675V11.7969C80.0675 12.474 80.0805 12.8698 80.1066 12.9844C80.1378 13.0938 80.2029 13.1849 80.3019 13.2578C80.406 13.3307 80.531 13.3672 80.6769 13.3672C80.88 13.3672 81.1743 13.2969 81.5597 13.1562L81.7472 14.8594C81.2368 15.0781 80.6586 15.1875 80.0128 15.1875C79.617 15.1875 79.2602 15.1224 78.9425 14.9922C78.6248 14.8568 78.3904 14.6849 78.2394 14.4766C78.0935 14.263 77.992 13.9766 77.9347 13.6172C77.8878 13.362 77.8644 12.8464 77.8644 12.0703V8.45312H76.8566V6.70312H77.8644V5.05469L80.0675 3.77344V6.70312H81.5675ZM88.8719 15V13.7578C88.5698 14.2005 88.1714 14.5495 87.6766 14.8047C87.187 15.0599 86.6687 15.1875 86.1219 15.1875C85.5646 15.1875 85.0646 15.0651 84.6219 14.8203C84.1792 14.5755 83.8589 14.2318 83.6609 13.7891C83.463 13.3464 83.3641 12.7344 83.3641 11.9531V6.70312H85.5594V10.5156C85.5594 11.6823 85.5984 12.3984 85.6766 12.6641C85.7599 12.9245 85.9083 13.1328 86.1219 13.2891C86.3354 13.4401 86.6062 13.5156 86.9344 13.5156C87.3094 13.5156 87.6453 13.4141 87.9422 13.2109C88.2391 13.0026 88.4422 12.7474 88.5516 12.4453C88.6609 12.138 88.7156 11.3906 88.7156 10.2031V6.70312H90.9109V15H88.8719ZM101.122 15H99.0825V13.7812C98.744 14.2552 98.3429 14.6094 97.8794 14.8438C97.421 15.0729 96.9575 15.1875 96.4887 15.1875C95.5356 15.1875 94.7179 14.8047 94.0356 14.0391C93.3585 13.2682 93.02 12.1953 93.02 10.8203C93.02 9.41406 93.3507 8.34635 94.0122 7.61719C94.6736 6.88281 95.5096 6.51562 96.52 6.51562C97.4471 6.51562 98.2492 6.90104 98.9262 7.67188V3.54688H101.122V15ZM95.2622 10.6719C95.2622 11.5573 95.3846 12.1979 95.6294 12.5938C95.9835 13.1667 96.4783 13.4531 97.1137 13.4531C97.619 13.4531 98.0486 13.2396 98.4028 12.8125C98.757 12.3802 98.9341 11.737 98.9341 10.8828C98.9341 9.92969 98.7622 9.24479 98.4184 8.82812C98.0747 8.40625 97.6346 8.19531 97.0981 8.19531C96.5773 8.19531 96.1398 8.40365 95.7856 8.82031C95.4367 9.23177 95.2622 9.84896 95.2622 10.6719ZM103.613 5.57812V3.54688H105.809V5.57812H103.613ZM103.613 15V6.70312H105.809V15H103.613ZM107.879 10.7344C107.879 10.0052 108.058 9.29948 108.418 8.61719C108.777 7.9349 109.285 7.41406 109.941 7.05469C110.603 6.69531 111.34 6.51562 112.152 6.51562C113.407 6.51562 114.436 6.92448 115.238 7.74219C116.04 8.55469 116.441 9.58333 116.441 10.8281C116.441 12.0833 116.035 13.125 115.223 13.9531C114.415 14.776 113.397 15.1875 112.168 15.1875C111.407 15.1875 110.681 15.0156 109.988 14.6719C109.301 14.3281 108.777 13.8255 108.418 13.1641C108.058 12.4974 107.879 11.6875 107.879 10.7344ZM110.129 10.8516C110.129 11.6745 110.324 12.3047 110.715 12.7422C111.105 13.1797 111.587 13.3984 112.16 13.3984C112.733 13.3984 113.212 13.1797 113.598 12.7422C113.988 12.3047 114.183 11.6693 114.183 10.8359C114.183 10.0234 113.988 9.39844 113.598 8.96094C113.212 8.52344 112.733 8.30469 112.16 8.30469C111.587 8.30469 111.105 8.52344 110.715 8.96094C110.324 9.39844 110.129 10.0286 110.129 10.8516ZM122.113 16.12H138.113V0.12H122.113V16.12Z" fill="black"/>
</svg>
